<svg width="28" height="28" viewBox="0 0 28 28" fill="none" xmlns="http://www.w3.org/2000/svg">
<path d="M22.75 3.79175H5.25C4.55381 3.79175 3.88613 4.06831 3.39384 4.56059C2.90156 5.05288 2.625 5.72055 2.625 6.41675V18.0834C2.625 18.7796 2.90156 19.4473 3.39384 19.9396C3.88613 20.4319 4.55381 20.7084 5.25 20.7084H8.45833V26.6117L14.3617 20.7084H22.75C23.4462 20.7084 24.1139 20.4319 24.6062 19.9396C25.0984 19.4473 25.375 18.7796 25.375 18.0834V6.41675C25.375 5.72055 25.0984 5.05288 24.6062 4.56059C24.1139 4.06831 23.4462 3.79175 22.75 3.79175ZM23.625 18.0834C23.622 18.3145 23.5288 18.5353 23.3654 18.6988C23.2019 18.8622 22.9811 18.9554 22.75 18.9584H13.6383L10.2083 22.3884V18.9584H5.25C5.01888 18.9554 4.79807 18.8622 4.63462 18.6988C4.47118 18.5353 4.37802 18.3145 4.375 18.0834V6.41675C4.37802 6.18562 4.47118 5.96481 4.63462 5.80137C4.79807 5.63793 5.01888 5.54477 5.25 5.54175H22.75C22.9811 5.54477 23.2019 5.63793 23.3654 5.80137C23.5288 5.96481 23.622 6.18562 23.625 6.41675V18.0834Z" fill="white"/>
<path d="M19.8333 9.33341H8.16667V11.0834H19.8333V9.33341Z" fill="white"/>
<path d="M16.3333 13.4167H8.16667V15.1667H16.3333V13.4167Z" fill="white"/>
</svg>
