<svg width="18" height="18" viewBox="0 0 18 18" fill="none" xmlns="http://www.w3.org/2000/svg">
<path d="M15.5 0.25H2.5C1.90326 0.25 1.33097 0.487053 0.90901 0.90901C0.487053 1.33097 0.25 1.90326 0.25 2.5V15.5C0.25 16.0967 0.487053 16.669 0.90901 17.091C1.33097 17.5129 1.90326 17.75 2.5 17.75H15.5C16.0967 17.75 16.669 17.5129 17.091 17.091C17.5129 16.669 17.75 16.0967 17.75 15.5V2.5C17.75 1.90326 17.5129 1.33097 17.091 0.90901C16.669 0.487053 16.0967 0.25 15.5 0.25ZM7.29 13.92L2.47 9.1L3.53 8L7.29 11.76L14.47 4.57L15.53 5.63L7.29 13.92Z" fill="white"/>
</svg>
