<svg width="18" height="18" viewBox="0 0 18 18" fill="none" xmlns="http://www.w3.org/2000/svg">
<path d="M15.5 17.75H2.5C1.90326 17.75 1.33097 17.5129 0.90901 17.091C0.487053 16.669 0.25 16.0967 0.25 15.5V2.5C0.25 1.90326 0.487053 1.33097 0.90901 0.90901C1.33097 0.487053 1.90326 0.25 2.5 0.25H15.5C16.0967 0.25 16.669 0.487053 17.091 0.90901C17.5129 1.33097 17.75 1.90326 17.75 2.5V15.5C17.75 16.0967 17.5129 16.669 17.091 17.091C16.669 17.5129 16.0967 17.75 15.5 17.75ZM2.5 1.75C2.30189 1.75259 2.11263 1.83244 1.97253 1.97253C1.83244 2.11263 1.75259 2.30189 1.75 2.5V15.5C1.75259 15.6981 1.83244 15.8874 1.97253 16.0275C2.11263 16.1676 2.30189 16.2474 2.5 16.25H15.5C15.6981 16.2474 15.8874 16.1676 16.0275 16.0275C16.1676 15.8874 16.2474 15.6981 16.25 15.5V2.5C16.2474 2.30189 16.1676 2.11263 16.0275 1.97253C15.8874 1.83244 15.6981 1.75259 15.5 1.75H2.5Z" fill="white" fill-opacity="0.56"/>
</svg>
