<svg width="24" height="24" viewBox="0 0 24 24" fill="none" xmlns="http://www.w3.org/2000/svg">
<path d="M12 21.06L4.08003 13.14C3.04436 12.1043 2.46252 10.6997 2.46252 9.235C2.46252 7.77034 3.04436 6.36567 4.08003 5.33C5.1157 4.29433 6.52037 3.71249 7.98503 3.71249C9.44969 3.71249 10.8544 4.29433 11.89 5.33L12 5.45L12.11 5.33C13.1457 4.29433 14.5504 3.71249 16.015 3.71249C17.4797 3.71249 18.8844 4.29433 19.92 5.33C20.9557 6.36567 21.5375 7.77034 21.5375 9.235C21.5375 10.6997 20.9557 12.1043 19.92 13.14L12 21.06ZM8.00003 5.22C7.20137 5.21126 6.41838 5.44182 5.75191 5.88198C5.08543 6.32215 4.56599 6.95175 4.26048 7.68972C3.95496 8.42768 3.87737 9.24021 4.03769 10.0227C4.19801 10.8051 4.58891 11.5217 5.16003 12.08L12 18.94L18.86 12.08C19.6146 11.3255 20.0385 10.3021 20.0385 9.235C20.0385 8.16792 19.6146 7.14454 18.86 6.39C18.1055 5.63546 17.0821 5.21156 16.015 5.21156C14.9479 5.21156 13.9246 5.63546 13.17 6.39L12 7.57L10.83 6.39C10.4583 6.01866 10.017 5.7242 9.53143 5.52345C9.04585 5.3227 8.52547 5.21958 8.00003 5.22Z" fill="#5C5A55"/>
</svg>
