<svg width="24" height="24" viewBox="0 0 24 24" fill="none" xmlns="http://www.w3.org/2000/svg">
<path d="M19.75 9.99997C19.7507 8.49898 19.3155 7.03009 18.4973 5.77172C17.6791 4.51335 16.5131 3.51965 15.1409 2.91134C13.7687 2.30302 12.2494 2.10627 10.7675 2.34497C9.28562 2.58368 7.90494 3.24757 6.79318 4.256C5.68141 5.26444 4.88641 6.57402 4.50474 8.02567C4.12307 9.47732 4.17115 11.0086 4.64315 12.4334C5.11515 13.8582 5.99075 15.1154 7.1636 16.0521C8.33644 16.9888 9.75606 17.5647 11.25 17.71V22H12.75V17.71C14.6651 17.5215 16.4418 16.6282 17.7353 15.2035C19.0288 13.7788 19.7469 11.9243 19.75 9.99997ZM12 11.25C11.7528 11.25 11.5111 11.1767 11.3055 11.0393C11.1 10.902 10.9398 10.7067 10.8452 10.4783C10.7505 10.2499 10.7258 9.99858 10.774 9.7561C10.8222 9.51363 10.9413 9.2909 11.1161 9.11608C11.2909 8.94127 11.5137 8.82222 11.7561 8.77398C11.9986 8.72575 12.2499 8.75051 12.4784 8.84512C12.7068 8.93973 12.902 9.09994 13.0393 9.3055C13.1767 9.51107 13.25 9.75274 13.25 9.99997C13.25 10.3315 13.1183 10.6494 12.8839 10.8839C12.6495 11.1183 12.3315 11.25 12 11.25ZM12.75 16.2V12.63C13.3886 12.4489 13.9402 12.0431 14.3029 11.4872C14.6657 10.9314 14.8152 10.263 14.7238 9.60561C14.6324 8.94817 14.3063 8.34597 13.8057 7.91013C13.3051 7.47429 12.6638 7.23422 12 7.23422C11.3362 7.23422 10.6949 7.47429 10.1943 7.91013C9.69365 8.34597 9.36757 8.94817 9.27619 9.60561C9.1848 10.263 9.33429 10.9314 9.69706 11.4872C10.0598 12.0431 10.6114 12.4489 11.25 12.63V16.2C9.66894 16.0089 8.22047 15.2214 7.20039 13.9984C6.18031 12.7754 5.66557 11.2091 5.7613 9.61945C5.85703 8.02976 6.556 6.53658 7.71546 5.44483C8.87493 4.35308 10.4074 3.74513 12 3.74513C13.5926 3.74513 15.1251 4.35308 16.2845 5.44483C17.444 6.53658 18.143 8.02976 18.2387 9.61945C18.3344 11.2091 17.8197 12.7754 16.7996 13.9984C15.7795 15.2214 14.3311 16.0089 12.75 16.2Z" fill="#5C5A55"/>
</svg>
